<?xml version="1.0" encoding="UTF-8"?>
<svg version="1.1" xmlns="http://www.w3.org/2000/svg" width="199" height="199">
<path d="M0 0 C8.56607889 6.81392639 12.49234657 18.97488144 17.125 28.625 C17.79455954 30.01474461 18.46432127 31.40439182 19.13427734 32.79394531 C23.41140053 41.67080368 27.6729659 50.55526481 31.91186523 59.45043945 C34.44289168 64.75957212 36.99555162 70.05770359 39.56640625 75.34765625 C40.47561396 77.22218774 41.3845406 79.09685528 42.293396 80.97155762 C43.17214906 82.78089272 44.05503277 84.58821979 44.93798828 86.39550781 C45.46763184 87.48831055 45.99727539 88.58111328 46.54296875 89.70703125 C47.01758545 90.6813208 47.49220215 91.65561035 47.98120117 92.65942383 C49 95 49 95 49 97 C49.66 97.33 50.32 97.66 51 98 C52.01533777 100.09003375 52.9271319 102.16710258 53.8125 104.3125 C57.58541842 113.21307088 61.66743838 121.9643554 65.76724243 130.71743774 C66.61420924 132.52592995 67.45947922 134.33521652 68.3046875 136.14453125 C68.79952637 137.20003174 69.29436523 138.25553223 69.80419922 139.34301758 C71 142 71 142 72 145 C72.66 145.33 73.32 145.66 74 146 C74.69269859 147.99113362 75.35338644 149.99342696 76 152 C77.41200844 155.18890821 78.97207514 158.30953033 80.52148438 161.43359375 C82.9176699 166.40911273 84.4963781 170.56774733 83.375 176.0625 C81.3011402 180.49301865 78.75541441 183.12229279 74.375 185.3125 C64.70534273 187.282245 57.23985585 186.06683212 48.9921875 180.69140625 C47.30072175 179.49888751 45.64772058 178.25226764 44 177 C43.01 176.34 42.02 175.68 41 175 C41 174.34 41 173.68 41 173 C40.36525925 171.65117592 39.70151152 170.3153341 39 169 C37.68 169 36.36 169 35 169 C34.938125 168.319375 34.87625 167.63875 34.8125 166.9375 C33.73598615 163.04548838 31.74334968 159.96555246 29 157 C28.34 157 27.68 157 27 157 C26.90074219 156.42121094 26.80148438 155.84242188 26.69921875 155.24609375 C24.47216043 148.09213546 16.45823924 141.93171402 10.1328125 138.3984375 C-2.10005101 132.08759593 -15.61432309 130.83363286 -29 134.5625 C-34.28405631 136.42195273 -38.56312119 139.08800265 -42.9765625 142.51171875 C-45 144 -45 144 -48 145 C-48 145.66 -48 146.32 -48 147 C-48.66 147 -49.32 147 -50 147 C-50.28520508 147.58700684 -50.57041016 148.17401367 -50.86425781 148.77880859 C-51.88432422 150.77377079 -52.9754441 152.64653581 -54.171875 154.5390625 C-54.79280029 155.52628296 -54.79280029 155.52628296 -55.42626953 156.53344727 C-55.86310059 157.22365967 -56.29993164 157.91387207 -56.75 158.625 C-59.65572106 163.21716045 -62.47704509 167.81519962 -65.125 172.5625 C-68.56768654 178.32948621 -72.96706674 182.57637827 -79.0625 185.4375 C-86.37203036 186.8371973 -92.5040773 185.94665204 -98.734375 181.86328125 C-103.31586274 178.26840102 -105.86975296 174.68234292 -107 169 C-107.48475207 162.40737188 -104.69772134 156.8650357 -102 151 C-101.6390625 150.2147998 -101.278125 149.42959961 -100.90625 148.62060547 C-95.50430051 136.96598829 -89.78748018 125.46673501 -84 114 C-78.0383971 102.1756053 -72.15847349 90.32075473 -66.46850586 78.36303711 C-63.75652149 72.66659493 -61.02844467 66.97841261 -58.27734375 61.30078125 C-57.9514325 60.62817261 -57.62552124 59.95556396 -57.28973389 59.26257324 C-55.59848139 55.7745903 -53.90368759 52.28836729 -52.20458984 48.80419922 C-49.06140354 42.35291613 -45.93682587 35.89581675 -42.90530396 29.3911438 C-41.57625954 26.54132567 -40.23527908 23.69719499 -38.89367676 20.85327148 C-38.26420818 19.50979445 -37.64074495 18.16348462 -37.02380371 16.81420898 C-32.94218574 7.8924373 -29.26993801 1.16822067 -20 -2.875 C-12.4616834 -5.29131262 -6.70362379 -3.84509742 0 0 Z M-15 57 C-17.59422514 62.63607087 -20.17568092 68.27774478 -22.74536133 73.92504883 C-23.62173554 75.84624954 -24.50160754 77.76585863 -25.38500977 79.68383789 C-26.65258102 82.43747808 -27.90755413 85.19655575 -29.16015625 87.95703125 C-29.55904556 88.81649857 -29.95793488 89.67596588 -30.36891174 90.56147766 C-30.72936081 91.36208115 -31.08980988 92.16268463 -31.46118164 92.98754883 C-31.78317032 93.6914827 -32.105159 94.39541656 -32.43690491 95.12068176 C-33.25467236 97.19467249 -33.25467236 97.19467249 -32 100 C-25.23002563 102.67062301 -18.21000348 103.46516152 -11 103 C-10.01 102.505 -10.01 102.505 -9 102 C-7.906875 101.855625 -6.81375 101.71125 -5.6875 101.5625 C-1.12825084 100.87556519 -1.12825084 100.87556519 3 99 C4.39638122 94.86843908 3.75154871 92.53314306 2 88.625 C1.53851563 87.5834375 1.07703125 86.541875 0.6015625 85.46875 C0.07304688 84.3240625 -0.45546875 83.179375 -1 82 C-1.29036133 81.36578125 -1.58072266 80.7315625 -1.87988281 80.078125 C-4.81727941 73.66696508 -7.82403726 67.2973244 -11 61 C-11.66666667 59.66666667 -12.33333333 58.33333333 -13 57 C-13.66 57 -14.32 57 -15 57 Z " fill="#6B00FB" transform="translate(111,5)"/>
<path d="M0 0 C0.99 0 1.98 0 3 0 C6 5.75 6 5.75 6 8 C6.99 8.495 6.99 8.495 8 9 C9.01533777 11.09003375 9.9271319 13.16710258 10.8125 15.3125 C14.58541842 24.21307088 18.66743838 32.9643554 22.76724243 41.71743774 C23.61420924 43.52592995 24.45947922 45.33521652 25.3046875 47.14453125 C26.0469458 48.72778198 26.0469458 48.72778198 26.80419922 50.34301758 C28 53 28 53 29 56 C29.66 56.33 30.32 56.66 31 57 C31.69269859 58.99113362 32.35338644 60.99342696 33 63 C34.41200844 66.18890821 35.97207514 69.30953033 37.52148438 72.43359375 C39.9176699 77.40911273 41.4963781 81.56774733 40.375 87.0625 C38.3011402 91.49301865 35.75541441 94.12229279 31.375 96.3125 C21.70534273 98.282245 14.23985585 97.06683212 5.9921875 91.69140625 C4.30072175 90.49888751 2.64772058 89.25226764 1 88 C0.01 87.34 -0.98 86.68 -2 86 C-2 85.34 -2 84.68 -2 84 C-2.63474075 82.65117592 -3.29848848 81.3153341 -4 80 C-5.32 80 -6.64 80 -8 80 C-8.0928125 78.9790625 -8.0928125 78.9790625 -8.1875 77.9375 C-9.26401385 74.04548838 -11.25665032 70.96555246 -14 68 C-14.66 68 -15.32 68 -16 68 C-16.1546875 67.195625 -16.1546875 67.195625 -16.3125 66.375 C-18.33524819 59.38732444 -22.67044851 53.85899608 -28 49 C-30.13927657 48.19785927 -30.13927657 48.19785927 -32 48 C-32 47.34 -32 46.68 -32 46 C-33.5778125 45.566875 -33.5778125 45.566875 -35.1875 45.125 C-38.22818711 44.22774807 -41.08712344 43.23576581 -44 42 C-44 41.67 -44 41.34 -44 41 C-49.28 40.67 -54.56 40.34 -60 40 C-60 39.01 -60 38.02 -60 37 C-59.31292969 36.93941406 -58.62585938 36.87882812 -57.91796875 36.81640625 C-57.01691406 36.73261719 -56.11585937 36.64882812 -55.1875 36.5625 C-54.29417969 36.48128906 -53.40085937 36.40007812 -52.48046875 36.31640625 C-49.87256441 36.06510233 -49.87256441 36.06510233 -47 35 C-46.34 35.33 -45.68 35.66 -45 36 C-45 35.34 -45 34.68 -45 34 C-43.9790625 33.8453125 -43.9790625 33.8453125 -42.9375 33.6875 C-37.07924398 32.3164188 -32.22438647 29.68881671 -27.23046875 26.43359375 C-25.63295886 25.40682295 -24.00652516 24.4245205 -22.36328125 23.47265625 C-13.72324768 18.35129744 -7.27139562 12.0289093 -2.125 3.375 C-1.073125 1.704375 -1.073125 1.704375 0 0 Z " fill="#0184FA" transform="translate(154,94)"/>
<path d="M0 0 C0.33 0.66 0.66 1.32 1 2 C3.3275935 2.37130051 5.66248202 2.69740249 8 3 C10.36141797 3.66202773 12.71796726 4.34158044 15.0703125 5.03515625 C24.34197732 7.51715843 33.47080043 7.57207727 43.01708984 7.46655273 C45.86485451 7.43760314 48.7107444 7.44599281 51.55859375 7.45898438 C66.7120771 7.44104379 81.61237264 6.09712427 96 1 C93.91708836 4.12436746 93.38723523 4.5365026 90.0625 5.75 C89.02802734 6.14445313 89.02802734 6.14445313 87.97265625 6.546875 C86 7 86 7 83 6 C83 6.66 83 7.32 83 8 C81.68 7.67 80.36 7.34 79 7 C78.67 7.66 78.34 8.32 78 9 C74.7 9 71.4 9 68 9 C68 9.99 68 10.98 68 12 C73.61 12 79.22 12 85 12 C85 12.66 85 13.32 85 14 C86.0725 14.28875 87.145 14.5775 88.25 14.875 C91.09400364 15.72820109 93.43508983 16.5636503 96 18 C96 18.66 96 19.32 96 20 C97.08861328 20.09087891 97.08861328 20.09087891 98.19921875 20.18359375 C101.92858909 21.2706766 103.32009922 23.12369908 105.8125 26.0625 C106.60269531 26.98160156 107.39289063 27.90070313 108.20703125 28.84765625 C108.79871094 29.55792969 109.39039063 30.26820313 110 31 C109.67 31.66 109.34 32.32 109 33 C108.51273438 32.43152344 108.02546875 31.86304688 107.5234375 31.27734375 C99.35844638 22.38492615 89.2516297 16.49542265 77.03125 15.76171875 C63.64791808 15.43216011 52.90093135 17.07353 42.0234375 25.51171875 C40 27 40 27 37 28 C37 28.66 37 29.32 37 30 C36.34 30 35.68 30 35 30 C34.71479492 30.58700684 34.42958984 31.17401367 34.13574219 31.77880859 C33.11567578 33.77377079 32.0245559 35.64653581 30.828125 37.5390625 C30.4141748 38.19720947 30.00022461 38.85535645 29.57373047 39.53344727 C29.13689941 40.22365967 28.70006836 40.91387207 28.25 41.625 C25.34427894 46.21716045 22.52295491 50.81519962 19.875 55.5625 C16.43231346 61.32948621 12.03293326 65.57637827 5.9375 68.4375 C-1.37203036 69.8371973 -7.5040773 68.94665204 -13.734375 64.86328125 C-18.31586274 61.26840102 -20.86975296 57.68234292 -22 52 C-22.48489388 45.40544326 -19.69420847 39.86769515 -17 34 C-16.63374512 33.19884766 -16.26749023 32.39769531 -15.89013672 31.57226562 C-10.95285725 20.85451286 -5.76879235 10.2959572 0 0 Z " fill="#3405F9" transform="translate(26,122)"/>
<path d="M0 0 C0.99 0.495 0.99 0.495 2 1 C-1.23471712 3.03325076 -4.34508903 4.84581759 -8 6 C-8.99 5.67 -9.98 5.34 -11 5 C-11 5.66 -11 6.32 -11 7 C-12.32 6.67 -13.64 6.34 -15 6 C-15.33 6.66 -15.66 7.32 -16 8 C-27.1014038 9.92861358 -39.0125972 9.31797077 -50.2578125 9.55224609 C-52.66677868 9.60369149 -55.07555498 9.66091959 -57.484375 9.71875 C-58.59664459 9.73911316 -58.59664459 9.73911316 -59.73138428 9.7598877 C-63.15611122 9.54499203 -63.15611122 9.54499203 -66 11 C-68.67058851 11.14115161 -71.32432238 11.04247107 -74 11 C-74 10.01 -74 9.02 -74 8 C-74.79664062 7.80664062 -75.59328125 7.61328125 -76.4140625 7.4140625 C-86.93848858 4.82776801 -86.93848858 4.82776801 -92 3 C-92 2.67 -92 2.34 -92 2 C-87.2432852 1.77109387 -83.53492997 2.60274205 -78.9921875 3.97265625 C-69.69077555 6.50754398 -60.57052167 6.57253404 -50.98291016 6.46655273 C-48.13514549 6.43760314 -45.2892556 6.44599281 -42.44140625 6.45898438 C-29.45608961 6.44508267 -15.84525138 6.16698264 -3.61767578 1.33374023 C-1.82692627 0.67353882 -1.82692627 0.67353882 0 0 Z " fill="#0E18FD" transform="translate(120,123)"/>
<path d="M0 0 C0.33 0.66 0.66 1.32 1 2 C1.66 2.33 2.32 2.66 3 3 C3.33 3.99 3.66 4.98 4 6 C6.31 6 8.62 6 11 6 C11 7.32 11 8.64 11 10 C18.61285737 11.29580551 25.69610189 11.99647102 33 9 C33 8.34 33 7.68 33 7 C34.65 6.34 36.3 5.68 38 5 C37.12132824 8.5945663 36.61749612 10.52875296 33.625 12.8125 C27.33668386 15.65721444 20.15468636 16.19075123 13.4921875 14.28125 C7.78827886 11.88367484 2.42329183 8.91127873 -0.375 3.1875 C-0.58125 2.465625 -0.7875 1.74375 -1 1 C-0.67 0.67 -0.34 0.34 0 0 Z " fill="#03BDE6" transform="translate(155,176)"/>
<path d="M0 0 C0 0.66 0 1.32 0 2 C1.08861328 2.09087891 1.08861328 2.09087891 2.19921875 2.18359375 C5.92858909 3.2706766 7.32009922 5.12369908 9.8125 8.0625 C10.60269531 8.98160156 11.39289063 9.90070313 12.20703125 10.84765625 C12.79871094 11.55792969 13.39039063 12.26820313 14 13 C13.67 13.66 13.34 14.32 13 15 C12.51273437 14.43152344 12.02546875 13.86304688 11.5234375 13.27734375 C3.35844638 4.38492615 -6.7483703 -1.50457735 -18.96875 -2.23828125 C-30.8385143 -2.52650952 -42.35083208 -1.71933434 -52 6 C-52.66 5.67 -53.32 5.34 -54 5 C-41.04909449 -5.89189058 -14.71777224 -10.76050751 0 0 Z " fill="#1A2FD3" transform="translate(122,140)"/>
<path d="M0 0 C3.77720794 4.49667612 6 9.0971218 6 15 C-4.17965221 20.45338511 -13.38194035 22.27848306 -25 21 C-28.35153525 19.73435445 -31.15038427 18.16231004 -34 16 C-33.67 15.34 -33.34 14.68 -33 14 C-31.515 14.99 -31.515 14.99 -30 16 C-23.88616383 17.78780047 -14.96932774 19.98466387 -9 17 C-6.6670134 16.95977609 -4.33293334 16.95679753 -2 17 C-1.67 16.34 -1.34 15.68 -1 15 C1.0625 14.375 1.0625 14.375 3 14 C2.52434492 9.87765597 1.95571265 6.65066361 0 3 C0 2.01 0 1.02 0 0 Z " fill="#5D07D2" transform="translate(111,89)"/>
<path d="M0 0 C1 3 1 3 -0.36328125 6.109375 C-1.00324505 7.32810025 -1.65343324 8.54149848 -2.3125 9.75 C-4.84747638 14.4440244 -6.69036307 18.81463549 -8 24 C-8.66 24 -9.32 24 -10 24 C-10.144375 24.94875 -10.28875 25.8975 -10.4375 26.875 C-11 30 -11 30 -12 32 C-12.66 32 -13.32 32 -14 32 C-14.4021875 33.299375 -14.4021875 33.299375 -14.8125 34.625 C-15.97111987 37.91791964 -17.38209839 40.91127875 -19 44 C-20 41 -20 41 -19.24658203 38.94140625 C-18.83778809 38.15636719 -18.42899414 37.37132812 -18.0078125 36.5625 C-17.5538208 35.67578613 -17.0998291 34.78907227 -16.63208008 33.87548828 C-16.13474365 32.92657715 -15.63740723 31.97766602 -15.125 31 C-14.10892021 29.01912936 -13.09463096 27.03733937 -12.08203125 25.0546875 C-11.56721191 24.05018555 -11.05239258 23.04568359 -10.52197266 22.01074219 C-8.20195028 17.4213107 -5.9990643 12.77916878 -3.8125 8.125 C-3.42658691 7.30515625 -3.04067383 6.4853125 -2.64306641 5.640625 C-1.75994523 3.76140166 -0.87961932 1.88086502 0 0 Z " fill="#5A04BB" transform="translate(61,49)"/>
<path d="M0 0 C5.03267653 -0.23664623 9.30474222 0.61404203 14.125 1.875 C14.82753906 2.04902344 15.53007813 2.22304687 16.25390625 2.40234375 C19.70923542 3.28413853 22.89890243 4.2164672 26 6 C26 6.99 26 7.98 26 9 C23.36 9 20.72 9 18 9 C18 8.01 18 7.02 18 6 C17.20335938 5.80664062 16.40671875 5.61328125 15.5859375 5.4140625 C5.06151142 2.82776801 5.06151142 2.82776801 0 1 C0 0.67 0 0.34 0 0 Z " fill="#1C0BFD" transform="translate(28,125)"/>
<path d="M0 0 C0.33 0 0.66 0 1 0 C1.5497272 5.63470383 -0.04952165 8.38987758 -3 13 C-3.66 13 -4.32 13 -5 13 C-5.185625 14.36125 -5.185625 14.36125 -5.375 15.75 C-5.92709223 18.62087959 -6.39160078 20.58740117 -8 23 C-8.99 23.33 -9.98 23.66 -11 24 C-9.42341672 18.82451456 -7.25856048 14.05799007 -4.9375 9.1875 C-4.57333984 8.41212891 -4.20917969 7.63675781 -3.83398438 6.83789062 C-1.13446065 1.13446065 -1.13446065 1.13446065 0 0 Z " fill="#4306D1" transform="translate(24,126)"/>
<path d="M0 0 C0.66 0 1.32 0 2 0 C2.33 0.66 2.66 1.32 3 2 C3.99 2.33 4.98 2.66 6 3 C9.76927426 7.94717246 12.04312998 13.12938995 14 19 C12.68 19 11.36 19 10 19 C9.938125 18.319375 9.87625 17.63875 9.8125 16.9375 C8.73598615 13.04548838 6.74334968 9.96555246 4 7 C3.34 7 2.68 7 2 7 C1.855625 6.401875 1.71125 5.80375 1.5625 5.1875 C1.1127561 3.43849596 0.57107659 1.71322977 0 0 Z " fill="#0573E4" transform="translate(136,155)"/>
<path d="M0 0 C0.66 0.33 1.32 0.66 2 1 C-5.25024047 7.04532945 -13.76969436 11.74870594 -23 14 C-25.16015625 13.5390625 -25.16015625 13.5390625 -27 13 C-26.05640625 12.64808594 -25.1128125 12.29617187 -24.140625 11.93359375 C-16.35992586 8.96278135 -9.34222923 5.70336028 -2.29296875 1.22265625 C-1.15794922 0.61744141 -1.15794922 0.61744141 0 0 Z " fill="#8904FD" transform="translate(137,112)"/>
<path d="M0 0 C0.99 0 1.98 0 3 0 C6 5.75 6 5.75 6 8 C6.66 8.33 7.32 8.66 8 9 C8.8515625 11.28515625 8.8515625 11.28515625 9.625 14.0625 C9.88539063 14.98160156 10.14578125 15.90070313 10.4140625 16.84765625 C10.60742188 17.55792969 10.80078125 18.26820312 11 19 C10.01 18.67 9.02 18.34 8 18 C7.855625 17.21625 7.71125 16.4325 7.5625 15.625 C7.12201075 13.03578982 7.12201075 13.03578982 6 11 C5.01 11.495 5.01 11.495 4 12 C3.34 9.03 2.68 6.06 2 3 C0.02 3.99 0.02 3.99 -2 5 C-1.34 3.35 -0.68 1.7 0 0 Z " fill="#1145E3" transform="translate(154,94)"/>
<path d="M0 0 C3.11062323 1.55531162 3.81215982 4.56589394 5.125 7.625 C5.40214844 8.22957031 5.67929688 8.83414063 5.96484375 9.45703125 C7.84018253 13.78971051 8.277309 17.3098609 8 22 C7.01 21.34 6.02 20.68 5 20 C4.62890625 18.1171875 4.62890625 18.1171875 4.5625 15.875 C4.23822274 11.50430645 3.01927852 8.49597638 0.83984375 4.7265625 C0 3 0 3 0 0 Z " fill="#03E5F8" transform="translate(185,158)"/>
<path d="M0 0 C8.25 0 16.5 0 25 0 C25 0.99 25 1.98 25 3 C24.03964844 2.83628906 23.07929687 2.67257813 22.08984375 2.50390625 C17.57586275 1.85905182 13.11378358 1.88982338 8.5625 1.9375 C7.32209961 1.94426758 7.32209961 1.94426758 6.05664062 1.95117188 C4.03772854 1.96284189 2.01885426 1.98077282 0 2 C0 1.34 0 0.68 0 0 Z " fill="#3715F9" transform="translate(86,134)"/>
<path d="M0 0 C2.8358562 2.46886304 4.19600752 5.0994988 5.75 8.5 C6.42289062 9.93859375 6.42289062 9.93859375 7.109375 11.40625 C8 14 8 14 7 17 C5.68 14.03 4.36 11.06 3 8 C2.34 8 1.68 8 1 8 C1 6.68 1 5.36 1 4 C0.34 3.67 -0.32 3.34 -1 3 C-0.67 2.01 -0.34 1.02 0 0 Z " fill="#5A06CC" transform="translate(97,59)"/>
<path d="M0 0 C0.66 0.33 1.32 0.66 2 1 C1.3125 3.4375 1.3125 3.4375 0 6 C-2.625 6.8125 -2.625 6.8125 -5 7 C-5 6.01 -5 5.02 -5 4 C-4.34 4 -3.68 4 -3 4 C-3 3.34 -3 2.68 -3 2 C-2.01 1.34 -1.02 0.68 0 0 Z " fill="#04CEE6" transform="translate(191,181)"/>
<path d="M0 0 C0.66 0.33 1.32 0.66 2 1 C1.38125 1.53625 0.7625 2.0725 0.125 2.625 C-2.20543253 4.91343409 -2.20543253 4.91343409 -3.0625 8.1875 C-3.5265625 9.5796875 -3.5265625 9.5796875 -4 11 C-4.99 11.33 -5.98 11.66 -7 12 C-5.63855967 6.80177328 -3.53269829 3.90456127 0 0 Z " fill="#5403BB" transform="translate(84,6)"/>
<path d="M0 0 C0.99 0.99 1.98 1.98 3 3 C1.35 5.64 -0.3 8.28 -2 11 C-3.33332095 8.3333581 -2.67102033 6.83319697 -2 4 C-1.01 4 -0.02 4 1 4 C0.67 2.68 0.34 1.36 0 0 Z " fill="#8204FC" transform="translate(152,90)"/>
<path d="M0 0 C0.99 0 1.98 0 3 0 C6 6.625 6 6.625 6 10 C4.99421411 8.71283353 3.99553202 7.42011342 3 6.125 C2.443125 5.40570313 1.88625 4.68640625 1.3125 3.9453125 C0 2 0 2 0 0 Z " fill="#00B6F8" transform="translate(146,166)"/>
<path d="M0 0 C2.97 0 5.94 0 9 0 C9 0.99 9 1.98 9 3 C4.545 2.01 4.545 2.01 0 1 C0 0.67 0 0.34 0 0 Z " fill="#1A27F4" transform="translate(102,134)"/>
<path d="M0 0 C4.875 4.625 4.875 4.625 6 8 C4.68 8 3.36 8 2 8 C1.855625 7.236875 1.71125 6.47375 1.5625 5.6875 C1.0367406 2.91827092 1.0367406 2.91827092 0 0 Z " fill="#067ED3" transform="translate(144,166)"/>
<path d="M0 0 C1 4 1 4 1 4 Z " fill="#0FC4C4" transform="translate(195,172)"/>
<path d="" fill="#00D4FF" transform="translate(0,0)"/>
<path d="M0 0 C0.99 0.495 0.99 0.495 2 1 C1.01 1.495 1.01 1.495 0 2 C0 1.34 0 0.68 0 0 Z " fill="#0000FF" transform="translate(104,138)"/>
<path d="" fill="#007FFF" transform="translate(0,0)"/>
<path d="" fill="#007FFF" transform="translate(0,0)"/>
<path d="" fill="#00BFFF" transform="translate(0,0)"/>
<path d="M0 0 C2 1 2 1 2 1 Z " fill="#3F00FF" transform="translate(80,103)"/>
<path d="" fill="#3F00FF" transform="translate(0,0)"/>
<path d="" fill="#0000FF" transform="translate(0,0)"/>
<path d="" fill="#007FFF" transform="translate(0,0)"/>
<path d="" fill="#00007F" transform="translate(0,0)"/>
<path d="" fill="#0000FF" transform="translate(0,0)"/>
<path d="" fill="#0000FF" transform="translate(0,0)"/>
<path d="" fill="#00FFFF" transform="translate(0,0)"/>
<path d="" fill="#00FFFF" transform="translate(0,0)"/>
<path d="" fill="#007FFF" transform="translate(0,0)"/>
<path d="" fill="#007FFF" transform="translate(0,0)"/>
<path d="" fill="#007FFF" transform="translate(0,0)"/>
<path d="" fill="#00AAFF" transform="translate(0,0)"/>
<path d="" fill="#0000FF" transform="translate(0,0)"/>
<path d="" fill="#007FFF" transform="translate(0,0)"/>
<path d="" fill="#0000FF" transform="translate(0,0)"/>
<path d="" fill="#0000FF" transform="translate(0,0)"/>
<path d="" fill="#0000FF" transform="translate(0,0)"/>
<path d="" fill="#0000FF" transform="translate(0,0)"/>
<path d="" fill="#0000FF" transform="translate(0,0)"/>
<path d="" fill="#0000FF" transform="translate(0,0)"/>
<path d="" fill="#0000FF" transform="translate(0,0)"/>
<path d="" fill="#5500FF" transform="translate(0,0)"/>
<path d="" fill="#0000FF" transform="translate(0,0)"/>
<path d="" fill="#7F00FF" transform="translate(0,0)"/>
<path d="" fill="#0000FF" transform="translate(0,0)"/>
<path d="" fill="#5555FF" transform="translate(0,0)"/>
<path d="" fill="#7F00FF" transform="translate(0,0)"/>
<path d="" fill="#7F00FF" transform="translate(0,0)"/>
<path d="" fill="#0000FF" transform="translate(0,0)"/>
<path d="" fill="#0000FF" transform="translate(0,0)"/>
<path d="" fill="#0000FF" transform="translate(0,0)"/>
<path d="" fill="#0000FF" transform="translate(0,0)"/>
<path d="" fill="#0000FF" transform="translate(0,0)"/>
<path d="" fill="#0000FF" transform="translate(0,0)"/>
<path d="" fill="#7F00FF" transform="translate(0,0)"/>
<path d="" fill="#0000FF" transform="translate(0,0)"/>
<path d="" fill="#0000FF" transform="translate(0,0)"/>
<path d="" fill="#0000FF" transform="translate(0,0)"/>
<path d="" fill="#0000FF" transform="translate(0,0)"/>
<path d="" fill="#0000FF" transform="translate(0,0)"/>
</svg>
